<svg xmlns="http://www.w3.org/2000/svg" viewBox="0 0 1500 1500"><defs><style>.cls-1{fill:#686868;}.cls-2{fill:#545454;}.cls-3{fill:#6b6b6b;}.cls-13,.cls-14,.cls-25,.cls-26,.cls-31,.cls-4,.cls-6{fill:none;stroke-linecap:round;stroke-width:30px;}.cls-4{stroke:#b0b0b0;}.cls-13,.cls-25,.cls-26,.cls-4,.cls-6{stroke-linejoin:round;}.cls-5{fill:#2c2c2c;}.cls-6{stroke:#d3d3d3;}.cls-7{fill:silver;}.cls-8{fill:#7b7b7b;}.cls-9{fill:#3f3f3f;}.cls-10{fill:#9b8c65;}.cls-11{fill:#6d6244;}.cls-12{fill:#bcb292;}.cls-13{stroke:#bca778;}.cls-14{stroke:#cbb77a;}.cls-14,.cls-31{stroke-miterlimit:10;}.cls-15{fill:#e6d8b1;}.cls-16{fill:#a49264;}.cls-17{fill:#dac99e;}.cls-18{fill:#635339;}.cls-19{fill:#796c4a;}.cls-20{fill:#756645;}.cls-21{fill:#303133;}.cls-22{fill:#252b33;}.cls-23{fill:#585a60;}.cls-24{font-size:12px;font-family:AdobeMyungjoStd-Medium-KSCpc-EUC-H, Adobe Myungjo Std;}.cls-25{stroke:#e4d8bc;}.cls-26{stroke:#1f1c66;}.cls-27{fill:#060309;}.cls-28{fill:#3a3cad;}.cls-29{fill:#e4d8bc;}.cls-30{fill:#1f1c66;}.cls-31{stroke:#1f2ae1;}.cls-32{fill:#7c8bd8;}.cls-33{fill:#1f2ae1;}.cls-34{fill:#114;}.cls-35{fill:#7a7bc8;}</style></defs><g id="레이어_4" data-name="레이어 4"><polygon id="칠_아래" class="cls-1" points="674.3 1244.7 1265.18 1348.89 1339.08 929.8 703.3 1080.19 674.3 1244.7"/><polygon id="칠_중간" class="cls-2" points="759.91 759.15 703.3 1080.19 1339.08 929.8 1395.69 608.76 759.91 759.15"/><polygon id="칠_위" class="cls-3" points="1421.47 462.56 830.58 358.37 759.91 759.15 1395.69 608.76 1421.47 462.56"/><rect id="외각_선" data-name="외각 선" class="cls-4" x="747.88" y="403.63" width="600" height="900" transform="translate(164.15 -168.99) rotate(10)"/><g id="중앙_문양" data-name="중앙 문양"><circle id="중앙_원" data-name="중앙 원" class="cls-5" cx="1047.27" cy="857.08" r="215"/><g id="상"><path class="cls-6" d="M850.31,822.35C869.49,713.57,973.23,640.93,1082,660.11S1263.42,783,1244.24,891.81"/><polygon class="cls-7" points="1104.05 535.07 1080.27 669.94 1031.2 643.01 1104.05 535.07"/><polygon class="cls-8" points="1104.05 535.07 1080.27 669.94 1135.59 661.41 1104.05 535.07"/></g><g id="중앙_삼각형" data-name="중앙 삼각형"><polygon class="cls-7" points="1023.49 991.97 1047.27 857.1 1096.34 884.03 1023.49 991.97"/><polygon class="cls-8" points="1023.49 991.97 1047.27 857.1 991.95 865.63 1023.49 991.97"/></g><path class="cls-7" d="M1158.09,855.29,943.76,817.5c-8.44-1.49-13.51-12.73-12.55-18.2h0c1-5.46,7.59-3.07,16-1.58l214.33,37.79c8.44,1.49,15.49,1.51,14.53,7h0C1175.14,848,1166.52,856.78,1158.09,855.29Z"/><path class="cls-7" d="M1069.77,730.21c3.41-19.32,24.93-15.17,28.49-14.35.41.1.82.18,1.24.26,55.33,10.75,50.52,123.45,50.52,123.45L956.85,805.51s34-107.55,89.7-98.73c.41.07.83.13,1.25.18,3.63.45,25.27,3.91,21.87,23.23"/><path class="cls-9" d="M965.06,784s38.73-13.5,95.78-3.44,88.82,36,88.82,36l.38,9.55s-61.48-18.88-93-24.43-95.61-8.83-95.61-8.83Z"/><g id="우"><polygon class="cls-7" points="1205.02 710.94 1200.23 750.31 1260.03 708.43 1205.02 710.94"/><polygon class="cls-8" points="1238.89 759.32 1260.06 708.48 1200.27 750.35 1238.89 759.32"/></g><g id="좌"><polygon class="cls-7" points="900.38 699.63 939.74 704.41 897.87 644.61 900.38 699.63"/><polygon class="cls-8" points="948.75 665.75 897.91 644.58 939.79 704.38 948.75 665.75"/></g></g><polygon id="칠_아래-2" data-name="칠_아래" class="cls-10" points="311.47 1349.15 891.03 1193.86 780.89 782.81 268.24 1187.8 311.47 1349.15"/><polygon id="칠_중간-2" data-name="칠_중간" class="cls-11" points="183.86 872.91 268.24 1187.8 780.89 782.81 696.51 467.92 183.86 872.91"/><polygon id="칠_위-2" data-name="칠_위" class="cls-12" points="658.09 324.53 78.53 479.82 183.86 872.91 696.51 467.92 658.09 324.53"/><rect id="외각_선-2" data-name="외각 선" class="cls-13" x="184.78" y="386.84" width="600" height="900" transform="translate(-200.07 153.99) rotate(-15)"/><circle id="중앙_원-2" data-name="중앙 원" class="cls-5" cx="485.69" cy="840.22" r="215"/><g id="위"><path class="cls-14" d="M292.5,892c-28.59-106.7,34.73-216.36,141.42-245s216.36,34.73,245,141.42"/><polygon class="cls-15" points="401.06 524.39 436.5 656.67 380.65 653 401.06 524.39"/><polygon class="cls-16" points="401.06 524.39 436.5 656.67 483.04 625.57 401.06 524.39"/></g><g id="중앙"><polygon class="cls-15" points="521.14 972.53 485.69 840.25 541.55 843.92 521.14 972.53"/><polygon class="cls-16" points="521.14 972.53 485.69 840.25 439.16 871.35 521.14 972.53"/></g><path id="모자_아래" data-name="모자 아래" class="cls-17" d="M585.36,791.77,375.14,848.1c-8.28,2.22-17.62-5.83-19.06-11.19h0c-1.44-5.35,5.58-6,13.86-8.21l210.22-56.33c8.28-2.22,14.68-5.17,16.11.18h0C597.71,777.91,593.64,789.56,585.36,791.77Z"/><path id="모자_위" data-name="모자 위" class="cls-17" d="M452.46,715.73c-5.08-19,16.18-24.28,19.76-25l1.22-.29c54.7-13.64,98,90.53,98,90.53L381.94,831.7s-14.61-111.85,39.57-127.38l1.21-.37c3.48-1.13,24.56-7.14,29.63,11.81"/><path id="모자_선" data-name="모자 선" class="cls-18" d="M380.29,808.75s29.4-28.61,85.35-43.6,95.72-4.91,95.72-4.91l4.38,8.49s-63.7,8.87-94.61,17.15-90.39,32.42-90.39,32.42Z"/><g id="우-2" data-name="우"><polygon class="cls-15" points="566.89 641.11 579.19 678.81 615.69 615.59 566.89 641.11"/><polygon class="cls-16" points="618.04 670.64 615.74 615.62 579.24 678.84 618.04 670.64"/></g><g id="좌-2" data-name="좌"><polygon class="cls-15" points="286.01 759.61 323.71 747.31 260.49 710.81 286.01 759.61"/><polygon class="cls-16" points="315.54 708.46 260.52 710.76 323.74 747.26 315.54 708.46"/></g><g id="총알_좌"><path class="cls-16" d="M358.54,1045l15.08-26.12a16.33,16.33,0,0,0,9.93-7.62l25.92-44.9-13.78-8-57.06,98.82,6.11-1.63A22.75,22.75,0,0,0,358.54,1045Z"/><path class="cls-16" d="M354.4,1007.79l-15.08,26.12a22.73,22.73,0,0,0-2.27,17.24l1.64,6.11,57.06-98.83L382,950.48,356,995.37A16.39,16.39,0,0,0,354.4,1007.79Z"/><path class="cls-19" d="M386.93,953.47l8.48,4.9L376,991.92a4.9,4.9,0,0,1-6.69,1.8h0a4.89,4.89,0,0,1-1.79-6.69Z"/><rect class="cls-20" x="382.04" y="951.1" width="32" height="6.76" transform="translate(265.51 1980.1) rotate(-150)"/></g><g id="총알_중"><path class="cls-16" d="M564,1082.13,556.21,1053a16.39,16.39,0,0,0,1.64-12.42L544.43,990.5l-15.38,4.12,29.54,110.23,3.16-5.48A22.73,22.73,0,0,0,564,1082.13Z"/><path class="cls-16" d="M534.78,1058.74l7.81,29.13a22.75,22.75,0,0,0,10.59,13.8l5.47,3.16L529.12,994.6l-15.38,4.12,13.42,50.08A16.39,16.39,0,0,0,534.78,1058.74Z"/><path class="cls-19" d="M519.37,997.33l9.47-2.54,10,37.43a4.9,4.9,0,0,1-3.46,6h0a4.9,4.9,0,0,1-6-3.46Z"/><rect class="cls-20" x="511.94" y="986.81" width="32" height="6.76" transform="translate(1294.17 1809.99) rotate(165)"/></g><g id="총알_우"><path class="cls-16" d="M721.8,931.48,695.68,916.4a16.33,16.33,0,0,0-7.62-9.93l-44.9-25.92-8,13.78L734,951.39l-1.63-6.11A22.75,22.75,0,0,0,721.8,931.48Z"/><path class="cls-16" d="M684.59,935.61l26.12,15.08A22.69,22.69,0,0,0,728,953l6.11-1.63-98.83-57.06-8,13.79L672.17,934A16.34,16.34,0,0,0,684.59,935.61Z"/><path class="cls-19" d="M630.27,903.09l4.9-8.49L668.72,914a4.9,4.9,0,0,1,1.8,6.69h0a4.9,4.9,0,0,1-6.69,1.79Z"/><rect class="cls-20" x="615.28" y="888.6" width="32" height="6.76" transform="translate(1719.39 791.27) rotate(120)"/></g><polygon id="칠_아래-3" data-name="칠_아래" class="cls-21" points="535.82 1093.71 1133.54 1041.42 1096.45 617.49 521.26 927.31 535.82 1093.71"/><polygon id="칠_중간-3" data-name="칠_중간" class="cls-22" points="502.6 608.55 531.01 933.31 1106.2 623.49 1077.79 298.73 502.6 608.55"/><polygon id="칠_위-3" data-name="칠_위" class="cls-23" points="1071.79 152.85 474.07 205.14 509.54 610.55 1084.73 300.73 1071.79 152.85"/><text class="cls-24" transform="translate(778.65 462.11) rotate(-5)">1F2AE1</text><rect id="외각_선-3" data-name="외각 선" class="cls-25" x="519.4" y="190.28" width="570" height="870" transform="matrix(1, -0.09, 0.09, 1, -51.44, 72.49)"/><rect id="외각_선-4" data-name="외각 선" class="cls-26" x="504.4" y="175.28" width="600" height="900" transform="translate(-51.44 72.49) rotate(-5)"/><path class="cls-27" d="M954.69,620.22l0-.15h-.13L769.82,264.28a9.79,9.79,0,0,0-18.53,1.62L632.1,648.3H632l.08.14-.06.15h.13l184,357.88a9.79,9.79,0,0,0,18.53-1.62l120-384.48h.12Z"/><path class="cls-28" d="M822,818.74,968.91,691a20,20,0,0,0,5.29-22.91L898.14,488.93A20,20,0,0,0,878,476.82l-193.93,17a20,20,0,0,0-17.74,15.42L622.53,698.89a20,20,0,0,0,9.18,21.64L798.58,820.79A20,20,0,0,0,822,818.74Z"/><path class="cls-29" d="M819.52,790.46,941.25,684.65a20,20,0,0,0,5.29-22.91l-63-148.47a20,20,0,0,0-20.15-12.11L702.69,515.21a20,20,0,0,0-17.75,15.43L648.66,687.8a20,20,0,0,0,9.19,21.64L796.1,792.51A20,20,0,0,0,819.52,790.46Z"/><path class="cls-30" d="M817.75,770.22l103.71-90.14a20,20,0,0,0,5.29-22.91L873.06,530.68a20,20,0,0,0-20.16-12.11L716,530.55A20,20,0,0,0,698.27,546L667.36,679.86a20,20,0,0,0,9.19,21.64l117.78,70.77A20,20,0,0,0,817.75,770.22Z"/><g id="위-2" data-name="위"><path class="cls-31" d="M593.39,689.27c-9.62-110,71.78-207,181.81-216.67s207,71.77,216.67,181.81"/><polygon class="cls-32" points="764.14 346.11 776.07 482.54 721.71 469.23 764.14 346.11"/><polygon class="cls-33" points="764.14 346.11 776.07 482.54 827.3 459.99 764.14 346.11"/></g><path id="모자_아래-2" data-name="모자 아래" class="cls-32" d="M903.62,643.06,686.81,662c-8.54.75-16.35-8.8-16.83-14.33h0c-.48-5.53,6.54-4.93,15.08-5.68l216.81-19c8.53-.75,15.35-2.55,15.83,3h0C918.18,631.55,912.15,642.31,903.62,643.06Z"/><path id="모자_위-2" data-name="모자 위" class="cls-32" d="M785.87,545.1c-1.71-19.54,20.15-21.1,23.8-21.23.42,0,.84,0,1.26-.07C867.17,519.87,891.69,630,891.69,630L696.28,647.06s5-112.68,61.09-118.57l1.26-.15c3.62-.52,25.42-2.77,27.13,16.77"/><path id="모자_선-2" data-name="모자 선" class="cls-33" d="M698.65,624.18s33.91-23.07,91.62-28.12,95.12,11.78,95.12,11.78l2.84,9.12s-64.28-2.32-96.16.47-94.64,16.22-94.64,16.22Z"/><g id="우-3" data-name="우"><polygon class="cls-32" points="908.4 490.75 913.97 530.02 960.89 474.1 908.4 490.75"/><polygon class="cls-33" points="953.64 528.72 960.93 474.13 914.01 530.05 953.64 528.72"/></g><g id="좌-3" data-name="좌"><polygon class="cls-32" points="610.21 558.76 649.48 553.2 593.56 506.27 610.21 558.76"/><polygon class="cls-33" points="648.18 513.52 593.59 506.23 649.51 553.15 648.18 513.52"/></g><path class="cls-33" d="M630.1,851.58l19.38-23.1a16.4,16.4,0,0,0,11.11-5.78L693.91,783l-12.19-10.23-73.35,87.42,6.3-.56A22.72,22.72,0,0,0,630.1,851.58Z"/><path class="cls-33" d="M632.49,814.22l-19.39,23.1a22.78,22.78,0,0,0-5.23,16.59l.55,6.3,73.35-87.42-12.19-10.23-33.33,39.72A16.38,16.38,0,0,0,632.49,814.22Z"/><path class="cls-34" d="M674,766.38l7.51,6.29-24.91,29.68a4.89,4.89,0,0,1-6.9.61h0a4.9,4.9,0,0,1-.6-6.9Z"/><rect class="cls-34" x="668.72" y="765.91" width="32" height="6.76" transform="matrix(-0.77, -0.64, 0.64, -0.77, 714.74, 1798.74)"/><path class="cls-33" d="M826,923.83l-2.63-30.05a16.39,16.39,0,0,0,3.77-11.94l-4.52-51.65-15.86,1.39,10,113.68,4.06-4.84A22.78,22.78,0,0,0,826,923.83Z"/><path class="cls-33" d="M801.28,895.72l2.63,30a22.71,22.71,0,0,0,8,15.43l4.84,4.06-9.94-113.68L791,833l4.52,51.65A16.4,16.4,0,0,0,801.28,895.72Z"/><path class="cls-34" d="M796.77,832.57l9.76-.86,3.37,38.6a4.89,4.89,0,0,1-4.45,5.31h0a4.9,4.9,0,0,1-5.3-4.45Z"/><rect class="cls-34" x="790.44" y="823.64" width="32" height="6.76" transform="translate(1681.9 1580.61) rotate(175)"/><path class="cls-33" d="M1007.55,802.87l-23.1-19.39a16.37,16.37,0,0,0-5.78-11.1L939,739.05l-10.23,12.19,87.42,73.35-.56-6.29A22.67,22.67,0,0,0,1007.55,802.87Z"/><path class="cls-33" d="M970.19,800.48l23.1,19.38a22.69,22.69,0,0,0,16.59,5.23l6.3-.55-87.42-73.35-10.23,12.2,39.72,33.32A16.39,16.39,0,0,0,970.19,800.48Z"/><path class="cls-34" d="M922.35,759l6.29-7.5,29.68,24.91a4.89,4.89,0,0,1,.61,6.9h0a4.9,4.9,0,0,1-6.9.6Z"/><rect class="cls-34" x="909.27" y="744.87" width="32" height="6.76" transform="translate(2093.21 520.42) rotate(130)"/><g id="중앙-2" data-name="중앙"><polygon class="cls-35" points="808.21 796.09 796.28 659.66 850.65 672.98 808.21 796.09"/><polygon class="cls-28" points="808.21 796.09 796.28 659.66 745.05 682.21 808.21 796.09"/></g></g></svg>