<svg xmlns="http://www.w3.org/2000/svg" viewBox="0 0 1500 1500"><defs><style>.cls-1{fill:#d0d0d8;}.cls-2{fill:#b2b2b7;}.cls-3{fill:#4b4b4c;}.cls-4{fill:#202021;}</style></defs><g id="레이어_6" data-name="레이어 6"><rect class="cls-1" x="747" y="776" width="180" height="531"/><path class="cls-1" d="M479,326H970a200,200,0,0,1,200,200V884a0,0,0,0,1,0,0H279a0,0,0,0,1,0,0V526A200,200,0,0,1,479,326Z"/><path class="cls-2" d="M459,326h0A180,180,0,0,1,639,506V884a0,0,0,0,1,0,0H279a0,0,0,0,1,0,0V506A180,180,0,0,1,459,326Z"/><path class="cls-3" d="M454.5,362h0A148.5,148.5,0,0,1,603,510.5V848a0,0,0,0,1,0,0H306a0,0,0,0,1,0,0V510.5A148.5,148.5,0,0,1,454.5,362Z"/><circle class="cls-4" cx="803.73" cy="482.29" r="45"/><circle class="cls-2" cx="803.73" cy="482.29" r="25.71"/><path class="cls-4" d="M887.52,254.58h0a0,0,0,0,1,0,0v216a0,0,0,0,1,0,0H844.77a0,0,0,0,1,0,0V297.33A42.75,42.75,0,0,1,887.52,254.58Z" transform="matrix(0.89, 0.46, -0.46, 0.89, 265.72, -359.34)"/><rect class="cls-1" x="747" y="884" width="180" height="99"/><rect class="cls-2" x="675" y="884" width="81" height="423"/></g></svg>