<svg xmlns="http://www.w3.org/2000/svg" viewBox="0 0 1500 1500"><defs><style>.cls-1{fill:#aa7529;}.cls-2{fill:#e8a535;}.cls-3{fill:#636268;}.cls-4{fill:#807e87;}.cls-5{fill:#3a393d;}.cls-6{fill:#3c3c3f;}.cls-7{fill:#fff;}</style></defs><g id="레이어_5" data-name="레이어 5"><circle class="cls-1" cx="517.17" cy="867.48" r="357.47"/><circle class="cls-2" cx="517.17" cy="867.48" r="308.4"/><circle class="cls-3" cx="949.68" cy="588.76" r="357.47"/><circle class="cls-4" cx="949.68" cy="588.76" r="322.42"/><path class="cls-5" d="M806.37,623.37V566.19H979.89v57.18Zm0,93.63V659.82H979.89V717Zm43.19,47.18v-363h59.67v363Zm28.71-140.81V566.19h116.1q21.72,0,35.08-14.85t13.36-38.82q0-24.72-13.23-39.45t-35.21-14.73H878.27V401.16H992.62q33.71,0,58.68,13.86a98.86,98.86,0,0,1,39,38.82q14,25,14,58.68,0,33.45-14,58.42a97.74,97.74,0,0,1-39.08,38.7q-25.1,13.73-58.55,13.73Z"/><path class="cls-1" d="M364,786.31A238.62,238.62,0,0,1,413.2,640.78C322.13,678.39,258,768.07,258,872.72c0,138.55,112.31,250.87,250.86,250.87A250.82,250.82,0,0,0,731,989.43,238.53,238.53,0,0,1,603.67,1026C471.28,1026,364,918.7,364,786.31Z"/><path class="cls-6" d="M767,1230.94a25,25,0,0,1-1.62-50,463.51,463.51,0,0,0,335.69-178.15l-43.74,4c-.78.07-1.56.11-2.33.11a25,25,0,0,1-2.29-49.89l97.11-9,.6,0,1.1-.05h1.25l1,0c.43,0,.86.08,1.29.13l.21,0,.78.1c.52.08,1,.19,1.54.31.32.07.64.14,1,.23.68.18,1.28.37,1.86.57l.68.26.16.06c.43.18.88.36,1.33.57l.77.38c.47.24.89.46,1.3.7l.52.29.39.26c.41.27.8.54,1.19.82l.15.11c.18.12.35.25.52.38.5.38,1,.79,1.49,1.26.26.23.51.48.76.73l.07.07c.36.36.67.67,1,1l.61.72.1.13c.24.3.49.6.73.92s.43.61.64.91.43.66.64,1,.38.63.55.94.38.73.57,1.11.3.62.44.94.32.79.48,1.2l.07.18.23.63c0,.12.09.24.12.36l28.89,90a25,25,0,1,1-47.6,15.28l-13.33-41.51a522.67,522.67,0,0,1-140.35,127,514.44,514.44,0,0,1-234.88,74.74C768.08,1230.92,767.53,1230.94,767,1230.94Z"/><path class="cls-7" d="M1152,953h.62l.83,0,1,.11c.27,0,.53.05.79.1.41.06.82.15,1.22.24l.79.19c.5.13,1,.28,1.48.45l.65.26c.36.15.73.29,1.08.46l.66.32c.35.18.7.37,1,.57l.36.2.26.17c.34.22.68.46,1,.7l.54.39c.41.32.8.66,1.19,1,.23.21.44.42.66.64s.53.52.78.8l.56.67c.2.25.4.49.59.75l.5.72c.18.27.36.53.53.81s.29.49.42.74.31.59.46.89.24.49.35.74.26.64.39,1,.19.49.27.74c0,.07.05.13.07.2l28.89,90a20,20,0,0,1-12.93,25.15,19.74,19.74,0,0,1-6.11,1h0a20,20,0,0,1-19-13.9l-16.29-50.73A508.94,508.94,0,0,1,768.31,1225.9c-.45,0-.89,0-1.33,0a20,20,0,0,1-1.29-40c137.82-9,264.46-78.89,346.22-189.17l-55.06,5.1c-.63.06-1.25.09-1.87.09a20,20,0,0,1-1.83-39.91l97.11-9,.52,0,.84,0h.39m0-10h-.64c-.39,0-.78,0-1.16.06s-.59,0-.87,0l-97.11,9A30,30,0,0,0,1055,1012c.92,0,1.86,0,2.78-.13l32-3A458.38,458.38,0,0,1,765,1176a30,30,0,0,0,1.94,59.94c.66,0,1.33,0,2-.07a517.39,517.39,0,0,0,317.55-136.39,525.87,525.87,0,0,0,55.49-59.81l10.44,32.5a30,30,0,1,0,57.12-18.34l-28.89-90c-.05-.17-.11-.35-.17-.52s-.18-.49-.28-.75l-.06-.14c-.15-.42-.34-.91-.57-1.44q-.24-.54-.51-1.08l0,0c-.25-.5-.47-.93-.69-1.33s-.42-.74-.64-1.1-.5-.81-.79-1.23-.49-.71-.75-1.07-.64-.82-.9-1.14l-.08-.1c-.24-.3-.49-.6-.75-.89-.43-.48-.82-.87-1.13-1.18l-.1-.09c-.31-.31-.61-.61-.93-.9-.61-.55-1.2-1.05-1.79-1.51-.23-.18-.47-.35-.72-.53l-.08-.06c-.49-.35-.92-.64-1.34-.92l-.59-.38c-.28-.18-.54-.31-.7-.4-.46-.26-.92-.52-1.39-.75s-.65-.33-1-.48c-.63-.29-1.2-.52-1.63-.69l-.09,0c-.3-.12-.59-.24-.89-.34-.7-.25-1.43-.48-2.22-.69-.37-.1-.73-.18-1.1-.26l-.09,0c-.51-.12-1.12-.26-1.82-.37-.35,0-.7-.1-1-.13l-.15,0c-.37,0-.93-.11-1.56-.15-.39,0-.78,0-1.17-.05h-.07l-.87,0Z"/><path class="cls-6" d="M318.87,494c-.6,0-1.23,0-1.92-.08l-.31,0c-.53-.05-1-.11-1.55-.18l-.42-.07c-.52-.09-1-.19-1.44-.29l-.51-.13c-.43-.11-.87-.24-1.31-.37l-.51-.17c-.42-.14-.86-.3-1.29-.47l-.45-.18c-.46-.2-.89-.4-1.33-.62l-.4-.19c-.55-.28-1.09-.59-1.61-.91l-.12-.07c-.57-.35-1.15-.76-1.77-1.22l-.5-.39-.11-.09q-.58-.46-1.14-1l-.65-.6c-.36-.34-.69-.7-1-1.06l-.1-.11c-.15-.15-.29-.31-.43-.47-.46-.53-.9-1.09-1.32-1.67-.13-.17-.24-.35-.36-.52l-.08-.12c-.27-.4-.54-.81-.79-1.24-.15-.24-.28-.49-.42-.73-.24-.44-.44-.85-.64-1.26s-.26-.54-.38-.81c-.18-.43-.36-.87-.52-1.32l0-.12c-.07-.19-.14-.37-.2-.56s-.08-.22-.12-.33l-28.89-90a25,25,0,1,1,47.6-15.28l13.33,41.52A524.22,524.22,0,0,1,452.23,295.6,508.14,508.14,0,0,1,664.53,215a24.24,24.24,0,0,1,3.5-.25A25,25,0,0,1,688,254.81a24.81,24.81,0,0,1-16.49,9.7C550.8,281.41,444,343.44,369.54,439.61l53.35-4.52c.71-.06,1.43-.09,2.14-.09a25.14,25.14,0,0,1,24.88,22.89,25,25,0,0,1-22.8,27l-106.26,9h-.13C320,494,319.44,494,318.87,494Z"/><path class="cls-7" d="M668,219.75a20,20,0,0,1,2.74,39.81,467.3,467.3,0,0,0-312,186l64.52-5.47c.58-.05,1.15-.07,1.72-.07a20,20,0,0,1,1.66,39.93l-106.11,9h-.14c-.52.05-1.05.07-1.57.07s-1,0-1.53-.06l-.28,0c-.4,0-.81-.08-1.21-.15l-.39-.06-1.1-.22-.4-.1-1.06-.3-.39-.13c-.35-.12-.7-.25-1-.39l-.37-.14c-.35-.15-.7-.32-1.05-.49l-.32-.15c-.43-.23-.87-.47-1.29-.73h0c-.52-.32-1-.67-1.51-1-.17-.12-.32-.25-.49-.38s-.61-.5-.91-.77l-.52-.48c-.28-.27-.55-.56-.82-.85s-.29-.3-.43-.46c-.37-.43-.72-.87-1.05-1.33l-.35-.51q-.33-.5-.63-1c-.12-.21-.24-.41-.35-.62s-.34-.65-.5-1-.21-.43-.3-.64-.29-.7-.42-1.06c-.08-.21-.16-.41-.23-.62s-.05-.14-.07-.21l-28.89-90A20,20,0,0,1,283.89,360a19.75,19.75,0,0,1,6.12-1,20,20,0,0,1,19,13.9l16.29,50.73A515.65,515.65,0,0,1,455,299.76,503.23,503.23,0,0,1,665.23,220a20.39,20.39,0,0,1,2.8-.2m0-10a29.31,29.31,0,0,0-4.19.3,513.05,513.05,0,0,0-214.37,81.38,521.67,521.67,0,0,0-71.6,57.31A528.39,528.39,0,0,0,329,402.33l-10.44-32.5a30,30,0,1,0-57.12,18.34l28.89,90a4.56,4.56,0,0,0,.18.52c.06.19.14.4.22.6l0,.12c.22.6.42,1.1.63,1.58.14.33.29.64.44,1,.24.49.49,1,.76,1.48.18.33.35.63.52.92.36.6.7,1.11,1,1.49l0,.05.49.72c.5.69,1,1.36,1.59,2,.19.22.39.44.59.65l.06.06c.43.47.82.87,1.21,1.25l.79.73c.43.38.89.77,1.36,1.15l.1.08c.21.17.42.34.64.5.67.5,1.3.94,1.93,1.33l.14.1.32.19c.58.35,1.19.69,1.82,1l.54.26c.55.27,1,.49,1.5.69.19.08.37.16.55.22.57.23,1.08.42,1.57.59l.53.17.07,0c.55.17,1.07.32,1.59.45l.6.15c.54.12,1.1.23,1.65.33h.08l.5.09q.85.14,1.77.21l.48.05c.81.06,1.56.09,2.29.09s1.37,0,2.14-.08l.43,0,106.1-9A30,30,0,0,0,425,430c-.85,0-1.72,0-2.57.11l-41.8,3.54c73.27-90,176-148,291.5-164.19A30,30,0,0,0,668,209.75Z"/></g></svg>