<svg xmlns="http://www.w3.org/2000/svg" viewBox="0 0 1500 1500"><defs><style>.cls-1{opacity:0.4;}.cls-2{fill:#d0d0d8;}.cls-3{fill:#b2b2b7;}.cls-4{fill:#4b4b4c;}.cls-5{fill:#202021;}.cls-6{fill:none;stroke:#97c69f;stroke-linecap:round;stroke-linejoin:round;stroke-width:50px;}</style></defs><g id="레이어_6" data-name="레이어 6"><g class="cls-1"><rect class="cls-2" x="764.06" y="825.65" width="167.6" height="494.41"/><path class="cls-2" d="M556.94,406.66h401a200,200,0,0,1,200,200V926.21a0,0,0,0,1,0,0H328.3a0,0,0,0,1,0,0V635.3A228.64,228.64,0,0,1,556.94,406.66Z"/><path class="cls-3" d="M489.83,406.66H502A161.52,161.52,0,0,1,663.5,568.18v358a0,0,0,0,1,0,0H328.3a0,0,0,0,1,0,0v-358A161.52,161.52,0,0,1,489.83,406.66Z"/><path class="cls-4" d="M491.71,440.18h0A138.27,138.27,0,0,1,630,578.45V892.69a0,0,0,0,1,0,0H353.44a0,0,0,0,1,0,0V578.45A138.27,138.27,0,0,1,491.71,440.18Z"/><circle class="cls-5" cx="816.88" cy="552.18" r="41.9"/><circle class="cls-3" cx="816.88" cy="552.18" r="23.94"/><path class="cls-5" d="M886.65,340.16h8.24a0,0,0,0,1,0,0V541.27a0,0,0,0,1,0,0h-39.8a0,0,0,0,1,0,0V371.72A31.56,31.56,0,0,1,886.65,340.16Z" transform="translate(302.85 -354.58) rotate(27.53)"/><rect class="cls-2" x="764.06" y="926.21" width="167.6" height="92.18"/><rect class="cls-3" x="697.02" y="926.21" width="75.42" height="393.85"/></g><rect class="cls-2" x="759.72" y="928.59" width="132.89" height="392.01"/><path class="cls-2" d="M614.21,596.38H872a200,200,0,0,1,200,200v211.95a0,0,0,0,1,0,0H414.21a0,0,0,0,1,0,0V796.38A200,200,0,0,1,614.21,596.38Z"/><path class="cls-3" d="M547.1,596.38h0A132.89,132.89,0,0,1,680,729.26v279.06a0,0,0,0,1,0,0H414.21a0,0,0,0,1,0,0V729.26A132.89,132.89,0,0,1,547.1,596.38Z"/><path class="cls-4" d="M543.78,623h0A109.63,109.63,0,0,1,653.41,732.58V981.75a0,0,0,0,1,0,0H434.15a0,0,0,0,1,0,0V732.58A109.63,109.63,0,0,1,543.78,623Z"/><circle class="cls-5" cx="801.6" cy="711.76" r="33.22"/><circle class="cls-3" cx="801.6" cy="711.76" r="18.98"/><path class="cls-5" d="M863.46,543.65h0a0,0,0,0,1,0,0V703.11a0,0,0,0,1,0,0H831.89a0,0,0,0,1,0,0V575.21A31.56,31.56,0,0,1,863.46,543.65Z" transform="translate(384.2 -321.26) rotate(27.53)"/><rect class="cls-2" x="759.72" y="1008.32" width="132.89" height="73.09"/><rect class="cls-3" x="706.56" y="1008.32" width="59.8" height="312.28"/><polyline class="cls-6" points="1162 1289 1162 1045.79 1063 1144.79"/><line class="cls-6" x1="1162" y1="1045.79" x2="1261" y2="1144.79"/><g class="cls-1"><polyline class="cls-6" points="1162 1181 1162 857 1063 988.88"/><line class="cls-6" x1="1162" y1="857" x2="1261" y2="988.88"/></g></g></svg>